<svg width="220" height="261" fill="none" xmlns="http://www.w3.org/2000/svg"><path d="M219.065 190.96a382.537 382.537 0 0 1-4.504 12.02c-3.959 9.015-8.6 17.347-13.923 25.132-7.371 10.518-13.377 17.757-18.018 21.718-7.098 6.557-14.879 9.972-23.069 10.108-5.869 0-12.967-1.639-21.294-5.054-8.326-3.415-15.97-5.054-22.932-5.054-7.371 0-15.151 1.639-23.614 5.054-8.463 3.415-15.152 5.191-20.339 5.327-7.917.273-15.697-3.141-23.614-10.381-5.05-4.37-11.33-11.883-18.837-22.537-8.054-11.337-14.742-24.45-19.93-39.475C3.396 171.564.666 155.856.666 140.694c0-17.347 3.822-32.372 11.33-44.938 5.87-10.108 13.786-18.03 23.614-23.903 9.828-5.874 20.475-8.879 31.941-9.015 6.28 0 14.47 1.912 24.707 5.736 10.237 3.825 16.789 5.737 19.656 5.737 2.184 0 9.418-2.322 21.703-6.83 11.603-4.234 21.431-5.873 29.484-5.19 21.84 1.776 38.22 10.381 49.14 25.816-19.519 11.883-29.211 28.411-28.938 49.719.137 16.527 6.143 30.323 18.018 41.25 5.187 5.191 11.057 9.015 17.745 11.884ZM164.192.825c.137 1.776.273 3.415.273 5.19 0 12.977-4.777 25.133-14.196 36.334-11.466 13.386-25.252 21.035-40.131 19.806-.136-1.503-.273-3.142-.273-4.918 0-12.43 5.46-25.815 15.015-36.743 4.778-5.463 10.92-10.107 18.291-13.795 7.508-3.552 14.469-5.6 21.021-5.874Z" fill="#333"/></svg>